Coordinates
version=1
nRows=32
nColumns=22
inDegrees=yes

Units are S.I. units (second, meters, Newtons, ...)
If the header above contains a line with 'inDegrees', this indicates whether rotational values are in degrees (yes) or radians (no).

endheader
time	pelvis_tilt	pelvis_list	pelvis_rotation	pelvis_tx	pelvis_ty	pelvis_tz	hip_flexion_r	hip_adduction_r	hip_rotation_r	knee_angle_r	ankle_angle_r	subtalar_angle_r	hip_flexion_l	hip_adduction_l	hip_rotation_l	knee_angle_l	ankle_angle_l	subtalar_angle_l	lumbar_extension	lumbar_bending	lumbar_rotation
      2.49000000	      3.90538300	      4.08651523	    -36.04241300	     -0.33610378	      1.00773764	     -0.28324549	     12.76717258	     -9.93938871	     -7.67807534	    -60.35207900	      5.48148423	     -0.20467578	      5.44731734	      5.02988104	     -7.11133180	    -11.61456883	      8.47159297	      5.97060023	     -6.20931505	    -10.11015585	     -0.81140525
      2.50000000	      3.88032023	      3.89894683	    -36.32129394	     -0.32844841	      1.00859905	     -0.27959158	     13.97419240	     -9.61480432	     -7.93578148	    -60.32962210	      6.07150875	     -0.25177033	      4.47022223	      4.97741260	     -7.38737525	    -10.95397820	      8.70429609	      6.11677412	     -6.35451924	     -9.86831492	     -1.18538184
      2.51000000	      3.86660874	      3.70420169	    -36.55130579	     -0.32081269	      1.00939107	     -0.27594879	     15.09465969	     -9.29896248	     -8.28131888	    -60.09221394	      6.57660184	     -0.19134883	      3.46295709	      4.93481294	     -7.63596326	    -10.25746219	      8.93321993	      6.32947913	     -6.51072025	     -9.62387275	     -1.56646030
      2.52000000	      3.84474207	      3.53021119	    -36.72373483	     -0.31324026	      1.01004274	     -0.27236711	     16.17552422	     -9.00498343	     -8.69508544	    -59.66721389	      7.01327686	     -0.05112786	      2.47554510	      4.91405901	     -7.80017550	     -9.54865115	      9.14555891	      6.51431201	     -6.65366238	     -9.38634587	     -1.98914597
      2.53000000	      3.81442735	      3.37260706	    -36.84089168	     -0.30570997	      1.01055156	     -0.26880770	     17.20616402	     -8.73908889	     -9.18736838	    -59.05644268	      7.43527604	      0.10591693	      1.51290942	      4.90477484	     -7.92395569	     -8.84571876	      9.33390808	      6.64633952	     -6.78007088	     -9.15380676	     -2.44795698
      2.54000000	      3.79254173	      3.22113262	    -36.91391107	     -0.29820621	      1.01094637	     -0.26527539	     18.16533033	     -8.50647549	     -9.74252772	    -58.26540117	      7.82382069	      0.29590967	      0.54924647	      4.91026003	     -7.97896755	     -8.14136728	      9.51652437	      6.76946761	     -6.91280312	     -8.92169684	     -2.93186646
      2.55000000	      3.77057292	      3.07913653	    -36.94585482	     -0.29074622	      1.01120789	     -0.26171405	     19.06330259	     -8.30337662	    -10.35697805	    -57.30551410	      8.20375607	      0.48685506	     -0.40384908	      4.92079529	     -7.98673889	     -7.44273859	      9.69685418	      6.86537600	     -7.03827165	     -8.69948796	     -3.42922111
      2.56000000	      3.75473067	      2.93668521	    -36.93939612	     -0.28331593	      1.01135677	     -0.25812756	     19.88308716	     -8.12658546	    -11.02592851	    -56.17849641	      8.58057044	      0.67347484	     -1.35047133	      4.93040031	     -7.94933807	     -6.76473308	      9.87423811	      6.93263022	     -7.17059702	     -8.47748635	     -3.94353961
      2.57000000	      3.74153566	      2.79353305	    -36.90649380	     -0.27592914	      1.01138656	     -0.25447049	     20.63007647	     -7.96729972	    -11.73763851	    -54.89439446	      8.95913606	      0.84276102	     -2.28992084	      4.93361677	     -7.87944537	     -6.10580029	     10.05365118	      6.96491310	     -7.30368781	     -8.25972347	     -4.44962194
      2.58000000	      3.73044785	      2.64731875	    -36.85240951	     -0.26858398	      1.01130006	     -0.25073538	     21.30294979	     -7.81820614	    -12.48242836	    -53.46089290	      9.33576659	      0.98660746	     -3.21621446	      4.92668381	     -7.78743753	     -5.47980084	     10.23343455	      6.95949224	     -7.43801805	     -8.04094267	     -4.95263941
      2.59000000	      3.72221777	      2.49527137	    -36.78406162	     -0.26128661	      1.01110276	     -0.24689786	     21.89955670	     -7.67130607	    -13.25241971	    -51.88526065	      9.70084974	      1.10441323	     -4.13093627	      4.90587979	     -7.68303849	     -4.88902099	     10.41583705	      6.91520395	     -7.57585552	     -7.82305934	     -5.43929990
      2.60000000	      3.71758009	      2.34191506	    -36.71704846	     -0.25403862	      1.01079041	     -0.24293543	     22.42679402	     -7.52404523	    -14.03650604	    -50.17902266	     10.04590773	      1.19487480	     -5.03258074	      4.87712946	     -7.58443855	     -4.33340475	     10.59775980	      6.82929424	     -7.71201773	     -7.61288870	     -5.87560892
      2.61000000	      3.71312297	      2.18851358	    -36.64100696	     -0.24685507	      1.01036013	     -0.23886071	     22.89074456	     -7.37066441	    -14.83239696	    -48.35353839	     10.34926684	      1.26564705	     -5.90772300	      4.83597573	     -7.49453207	     -3.82817847	     10.78729297	      6.71011448	     -7.84695634	     -7.40815147	     -6.29560222
      2.62000000	      3.70069448	      2.04634128	    -36.56950204	     -0.23973226	      1.00979279	     -0.23467437	     23.31096336	     -7.20968726	    -15.62670270	    -46.42110000	     10.60674245	      1.32877293	     -6.73970662	      4.78971884	     -7.41973296	     -3.37915150	     10.99145789	      6.57229737	     -7.96374944	     -7.20901466	     -6.68320057
      2.63000000	      3.69944715	      1.91060208	    -36.50614036	     -0.23268962	      1.00911672	     -0.23036073	     23.67322768	     -7.04471830	    -16.41820307	    -44.39537063	     10.80262828	      1.39591565	     -7.55358776	      4.74614688	     -7.37369482	     -2.97262638	     11.19763116	      6.40330269	     -8.08795193	     -7.03292601	     -7.01004234
      2.64000000	      3.69179615	      1.79497057	    -36.45097123	     -0.22572505	      1.00830140	     -0.22594388	     24.00762630	     -6.87324600	    -17.19701893	    -42.29212528	     10.93312348	      1.48593065	     -8.31554842	      4.70642057	     -7.34985919	     -2.62838159	     11.42548857	      6.22653161	     -8.19311810	     -6.87335185	     -7.29736960
      2.65000000	      3.69782530	      1.69783849	    -36.41184371	     -0.21884687	      1.00737288	     -0.22141455	     24.30228645	     -6.69960586	    -17.94586671	    -40.12704432	     11.01374471	      1.61240697	     -9.05063768	      4.68345515	     -7.35539943	     -2.33165115	     11.64820594	      6.02806666	     -8.30142087	     -6.74329254	     -7.53628174
      2.66000000	      3.67008310	      1.63873972	    -36.37368917	     -0.21206731	      1.00626270	     -0.21680663	     24.61689966	     -6.51762337	    -18.67939267	    -37.91842109	     10.99546044	      1.78832341	     -9.68214345	      4.65907324	     -7.38204367	     -2.12704992	     11.94976669	      5.86103905	     -8.35779669	     -6.62673239	     -7.74137498
      2.67000000	      3.66722629	      1.59370380	    -36.35157164	     -0.20535844	      1.00507036	     -0.21209794	     24.88717194	     -6.34319936	    -19.39479345	    -35.68087535	     10.94082329	      2.02916977	    -10.29855209	      4.65597999	     -7.43224567	     -1.97238778	     12.24609108	      5.67581427	     -8.43153948	     -6.54121844	     -7.87973260
      2.68000000	      3.66419694	      1.57492920	    -36.33911007	     -0.19874314	      1.00376616	     -0.20729765	     25.14534971	     -6.16695119	    -20.07441071	    -33.42405236	     10.85734753	      2.34228869	    -10.84991043	      4.66381062	     -7.49339685	     -1.90726702	     12.55405555	      5.48651581	     -8.49400864	     -6.48184762	     -7.96791150
      2.69000000	      3.65078678	      1.58075094	    -36.33457042	     -0.19218794	      1.00233593	     -0.20239375	     25.40593914	     -5.98731943	    -20.72174906	    -31.17503592	     10.74265530	      2.73046868	    -11.34401641	      4.67747383	     -7.57703189	     -1.90246515	     12.90554539	      5.29410560	     -8.53075497	     -6.43656603	     -8.03615255
      2.70000000	      3.58388185	      1.63253472	    -36.33406093	     -0.18570191	      1.00072506	     -0.19739915	     25.72229773	     -5.79513600	    -21.32802162	    -28.94354861	     10.57919954	      3.07851035	    -11.70153298	      4.68459539	     -7.69500799	     -2.01295340	     13.31325688	      5.12898555	     -8.48549913	     -6.39407006	     -8.06539426
      2.71000000	      3.58416969	      1.65537223	    -36.33316345	     -0.17925097	      0.99915952	     -0.19230496	     25.93208233	     -5.61672659	    -21.91124663	    -26.73785915	     10.47610757	      3.64310764	    -12.10705550	      4.69936636	     -7.77323333	     -2.18127358	     13.70469107	      4.90589420	     -8.53227228	     -6.36950701	     -8.07027274
      2.72000000	      3.51055249	      1.73369242	    -36.33138037	     -0.17283654	      0.99738375	     -0.18712163	     26.23141446	     -5.43359563	    -22.45159200	    -24.59386592	     10.31484745	      4.02291266	    -12.34616410	      4.70261189	     -7.90067241	     -2.48016890	     14.18804376	      4.71941125	     -8.46813369	     -6.34017436	     -8.04809642
      2.73000000	      3.46988649	      1.77216782	    -36.31499563	     -0.16640247	      0.99564667	     -0.18181684	     26.44019165	     -5.24601679	    -22.97170982	    -22.50146905	     10.23673104	      4.61594608	    -12.62087799	      4.68156964	     -7.99668239	     -2.82017891	     14.63824977	      4.47634552	     -8.46314122	     -6.29167722	     -8.03643621
      2.74000000	      3.38418911	      1.84378693	    -36.29220202	     -0.15996658	      0.99376624	     -0.17641561	     26.70213956	     -5.07022067	    -23.46152794	    -20.51239830	     10.12319419	      4.96983419	    -12.77930565	      4.64785242	     -8.12069592	     -3.27728768	     15.17194338	      4.27250889	     -8.39056754	     -6.23813994	     -7.99615460
      2.75000000	      3.30737966	      1.88681615	    -36.24602795	     -0.15343210	      0.99189852	     -0.17092047	     26.90650703	     -4.90331108	    -23.92517944	    -18.62010725	     10.06280526	      5.37257539	    -12.95142962	      4.58623119	     -8.22557233	     -3.77248723	     15.68412296	      4.05416078	     -8.33917800	     -6.14640332	     -7.97623948
      2.76000000	      3.22882512	      1.92673883	    -36.18257991	     -0.14682656	      0.99000132	     -0.16530324	     27.09340846	     -4.76191264	    -24.35416591	    -16.86220975	     10.01945680	      5.69111882	    -13.11440373	      4.50899481	     -8.32165448	     -4.30352113	     16.21441146	      3.85502616	     -8.28377933	     -6.04212684	     -7.97956116
      2.77000000	      3.16674018	      1.92662507	    -36.09418321	     -0.14007858	      0.98816586	     -0.15956468	     27.21155397	     -4.64170046	    -24.78409904	    -15.25036641	     10.02838474	      6.04139081	    -13.33285243	      4.39791277	     -8.37811740	     -4.82765816	     16.66934341	      3.67374620	     -8.26282242	     -5.89810649	     -7.99325029
      2.78000000	      3.09604699	      1.94054706	    -35.98779724	     -0.13320982	      0.98629964	     -0.15372194	     27.34173257	     -4.57460724	    -25.18140173	    -13.83622074	     10.02883396	      6.19855017	    -13.53371464	      4.28124071	     -8.41626538	     -5.38014319	     17.14411069	      3.55557364	     -8.21564258	     -5.74703212	     -8.01047124
      2.79000000	      3.04514795	      1.93563659	    -35.85528658	     -0.12616858	      0.98450395	     -0.14775169	     27.42343051	     -4.55861691	    -25.56465487	    -12.62175333	     10.05211040	      6.30268503	    -13.79856751	      4.14856938	     -8.40307506	     -5.89502401	     17.55431780	      3.49676375	     -8.18816361	     -5.57573042	     -8.05931533
      2.80000000	      3.01331990	      1.93323271	    -35.69792463	     -0.11893674	      0.98277119	     -0.14164931	     27.47645688	     -4.61485610	    -25.92137200	    -11.63359540	     10.08908345	      6.33950407	    -14.12113971	      4.01678477	     -8.33661297	     -6.35850960	     17.90701740	      3.50216870	     -8.16169637	     -5.40247056	     -8.15490371
